<?xml version="1.0" encoding="UTF-8"?>
<svg id="_레이어_2" data-name="레이어 2" xmlns="http://www.w3.org/2000/svg" xmlns:xlink="http://www.w3.org/1999/xlink" viewBox="0 0 726.26 237.68">
  <defs>
    <style>
      .cls-1 {
        fill: url(#_무제_그라디언트_8-3);
      }

      .cls-2 {
        fill: url(#_무제_그라디언트_8-2);
      }

      .cls-3 {
        fill: url(#_무제_그라디언트_8);
      }
    </style>
    <linearGradient id="_무제_그라디언트_8" data-name="무제 그라디언트 8" x1="8.79" y1="118.95" x2="771.66" y2="118.95" gradientUnits="userSpaceOnUse">
      <stop offset="0" stop-color="#416cfe"/>
      <stop offset="1" stop-color="#cba0ff"/>
    </linearGradient>
    <linearGradient id="_무제_그라디언트_8-2" data-name="무제 그라디언트 8" y1="118.21" y2="118.21" xlink:href="#_무제_그라디언트_8"/>
    <linearGradient id="_무제_그라디언트_8-3" data-name="무제 그라디언트 8" y1="118.84" y2="118.84" xlink:href="#_무제_그라디언트_8"/>
  </defs>
  <g id="_레이어_1-2" data-name="레이어 1">
    <g>
      <path class="cls-3" d="M0,226.15h59.03v-117.29s39.48,82.26,59.23,82.26,59.61-86.13,59.61-86.13v121.16h57.68V11.76h-54.65s-12.26,1.16-15.61,12.13-47.52,92.97-47.52,92.97L70.32,22.4s-4.65-9.48-14.52-9.48H1.61L0,226.15Z"/>
      <path class="cls-2" d="M646.9,11.37h-69.68l-77.42,213.68h60.39l13.94-37.94h77.03l13.55,37.94h61.55L646.9,11.37ZM590.77,141.44l22.26-66.58,21.1,66.58h-43.35Z"/>
      <path class="cls-1" d="M380.97,0c-65.63,0-118.84,53.21-118.84,118.84s53.21,118.84,118.84,118.84,118.84-53.21,118.84-118.84S446.6,0,380.97,0ZM440.95,122.42c-39.18,6.65-49.75,17.22-56.4,56.4-.47,2.76-3.36,3.63-5.34,2.59-.9-.47-1.61-1.33-1.83-2.59-4.57-26.93-11-40.35-27.3-48.26-7.41-3.6-16.86-6.06-29.1-8.13-.5-.09-.94-.25-1.32-.48-2.64-1.58-2.2-6.09,1.32-6.69,39.18-6.65,49.75-17.22,56.4-56.4.47-2.76,3.36-3.63,5.34-2.59.9.47,1.61,1.33,1.83,2.59,4.57,26.93,11,40.35,27.3,48.26,7.41,3.6,16.86,6.06,29.1,8.13.5.09.94.25,1.32.48,2.64,1.58,2.2,6.09-1.32,6.69Z"/>
    </g>
  </g>
</svg>