<svg width="64" height="64" viewBox="0 0 64 64" fill="none" xmlns="http://www.w3.org/2000/svg">
<path fill-rule="evenodd" clip-rule="evenodd" d="M29.8498 0L34.1502 0C41.6672 0 46.5262 1.20231 50.7477 3.46C54.9692 5.7177 58.2823 9.03077 60.54 13.2523C62.7977 17.4738 64 22.3328 64 29.8498V34.1502C64 41.6672 62.7977 46.5262 60.54 50.7477C58.2823 54.9692 54.9692 58.2823 50.7477 60.54C46.5262 62.7977 41.6672 64 34.1502 64H29.8498C22.3328 64 17.4738 62.7977 13.2523 60.54C9.03077 58.2823 5.7177 54.9692 3.46 50.7477C1.20231 46.5262 0 41.6672 0 34.1502L0 29.8498C0 22.3328 1.20231 17.4738 3.46 13.2523C5.7177 9.03077 9.03077 5.7177 13.2523 3.46C17.4738 1.20231 22.3328 0 29.8498 0Z" fill="white"/>
<path opacity="0.1" d="M29.8498 0.5H34.1502C41.608 0.5 46.3809 1.69161 50.5119 3.90091C54.6463 6.112 57.888 9.3537 60.0991 13.4881C62.3084 17.6191 63.5 22.392 63.5 29.8498V34.1502C63.5 41.608 62.3084 46.3809 60.0991 50.5119C57.888 54.6463 54.6463 57.888 50.5119 60.0991C46.3809 62.3084 41.608 63.5 34.1502 63.5H29.8498C22.392 63.5 17.6191 62.3084 13.4881 60.0991C9.3537 57.888 6.112 54.6463 3.90091 50.5119C1.69161 46.3809 0.5 41.608 0.5 34.1502V29.8498C0.5 22.392 1.69161 17.6191 3.90091 13.4881C6.112 9.3537 9.3537 6.112 13.4881 3.90091C17.6191 1.69161 22.392 0.5 29.8498 0.5Z" stroke="#EFEFEF"/>
<g clip-path="url(#clip0_4165_3368)">
<path d="M50.2055 23.18C49.9906 22.3716 49.5672 21.6337 48.9776 21.0404C48.388 20.447 47.6529 20.0189 46.8459 19.7989C43.875 19 32 19 32 19C32 19 20.125 19 17.1541 19.7989C16.3471 20.0189 15.612 20.447 15.0224 21.0404C14.4328 21.6337 14.0094 22.3716 13.7945 23.18C13 26.1639 13 32.3864 13 32.3864C13 32.3864 13 38.6089 13.7945 41.5927C14.0094 42.4012 14.4328 43.139 15.0224 43.7324C15.612 44.3257 16.3471 44.7539 17.1541 44.9739C20.125 45.7727 32 45.7727 32 45.7727C32 45.7727 43.875 45.7727 46.8459 44.9739C47.6529 44.7539 48.388 44.3257 48.9776 43.7324C49.5672 43.139 49.9906 42.4012 50.2055 41.5927C51 38.6089 51 32.3864 51 32.3864C51 32.3864 51 26.1639 50.2055 23.18Z" fill="#FF0000"/>
<path d="M28.1138 38.0367L38.0456 32.3864L28.1138 26.736V38.0367Z" fill="white"/>
</g>
<defs>
<clipPath id="clip0_4165_3368">
<rect width="38" height="26.7727" fill="white" transform="translate(13 19)"/>
</clipPath>
</defs>
</svg>
